# xmcd
#
# Track frame offsets:
# 150
# 16260
# 37210
#
# Disc length: 970 seconds
#
#
# Revision: 6
# Processed by: cddbd v1.5.2PL0 Copyright (c) Steve Scherf et al.
# Submitted via: FreeRIP 2.96 
#
DISCID=1e03c803
DTITLE=Kim Appleby - Don't Worry
DYEAR=1990
DGENRE=Dance
TTITLE0=Don't Worry
TTITLE1=Don't Worry (The Phill Chill Mix)
TTITLE2=Don't Worry (The Stressed Out Mix)
EXTD=
EXTT0=
EXTT1=
EXTT2=
PLAYORDER=
